<svg width="40" height="40" viewBox="0 0 40 40" fill="none" xmlns="http://www.w3.org/2000/svg">
<path d="M16.486 20.1215C16.486 18.111 18.1164 16.4807 20.1281 16.4807C22.1398 16.4807 23.7711 18.111 23.7711 20.1215C23.7711 22.1321 22.1398 23.7624 20.1281 23.7624C18.1164 23.7624 16.486 22.1321 16.486 20.1215ZM14.5166 20.1215C14.5166 23.2189 17.0289 25.7296 20.1281 25.7296C23.2273 25.7296 25.7396 23.2189 25.7396 20.1215C25.7396 17.0242 23.2273 14.5134 20.1281 14.5134C17.0289 14.5134 14.5166 17.0242 14.5166 20.1215ZM24.6503 14.2911C24.6502 14.5503 24.727 14.8037 24.871 15.0193C25.0151 15.2349 25.2198 15.4029 25.4594 15.5022C25.699 15.6015 25.9626 15.6276 26.217 15.5771C26.4714 15.5266 26.7051 15.4019 26.8886 15.2187C27.0721 15.0355 27.1971 14.802 27.2478 14.5478C27.2985 14.2936 27.2726 14.0301 27.1735 13.7905C27.0743 13.551 26.9063 13.3463 26.6907 13.2022C26.4751 13.0581 26.2216 12.9811 25.9622 12.981H25.9617C25.614 12.9812 25.2807 13.1192 25.0348 13.3649C24.7889 13.6105 24.6506 13.9436 24.6503 14.2911ZM15.7131 29.0114C14.6477 28.963 14.0686 28.7856 13.6837 28.6357C13.1735 28.4372 12.8095 28.2008 12.4267 27.8188C12.044 27.4368 11.8071 27.0733 11.6093 26.5634C11.4593 26.179 11.2818 25.6001 11.2334 24.5353C11.1804 23.384 11.1698 23.0382 11.1698 20.1216C11.1698 17.205 11.1813 16.8602 11.2334 15.708C11.2819 14.6432 11.4607 14.0654 11.6093 13.6798C11.8079 13.1699 12.0445 12.8061 12.4267 12.4236C12.8089 12.041 13.1726 11.8043 13.6837 11.6066C14.0684 11.4567 14.6477 11.2793 15.7131 11.2309C16.865 11.178 17.2111 11.1674 20.1281 11.1674C23.0451 11.1674 23.3915 11.1789 24.5444 11.2309C25.6098 11.2794 26.188 11.4581 26.5738 11.6066C27.084 11.8043 27.448 12.0416 27.8308 12.4236C28.2135 12.8056 28.4496 13.1699 28.6482 13.6798C28.7982 14.0642 28.9757 14.6432 29.0241 15.708C29.0771 16.8602 29.0877 17.205 29.0877 20.1216C29.0877 23.0382 29.0771 23.3831 29.0241 24.5353C28.9756 25.6001 28.7973 26.1788 28.6482 26.5634C28.4496 27.0733 28.213 27.4372 27.8308 27.8188C27.4485 28.2005 27.084 28.4372 26.5738 28.6357C26.1891 28.7857 25.6098 28.963 24.5444 29.0114C23.3925 29.0644 23.0464 29.075 20.1281 29.075C17.2098 29.075 16.8647 29.0644 15.7131 29.0114ZM15.6226 9.26609C14.4593 9.31904 13.6643 9.5034 12.9701 9.77338C12.2511 10.0522 11.6424 10.4262 11.0342 11.0331C10.426 11.64 10.0527 12.2493 9.77372 12.9678C9.50358 13.6621 9.31911 14.4561 9.26613 15.6188C9.21228 16.7833 9.19995 17.1556 9.19995 20.1215C9.19995 23.0875 9.21228 23.4598 9.26613 24.6243C9.31911 25.787 9.50358 26.581 9.77372 27.2753C10.0527 27.9934 10.4261 28.6033 11.0342 29.21C11.6423 29.8166 12.2511 30.1901 12.9701 30.4697C13.6656 30.7397 14.4593 30.924 15.6226 30.977C16.7885 31.0299 17.1604 31.0431 20.1281 31.0431C23.0958 31.0431 23.4683 31.0308 24.6335 30.977C25.797 30.924 26.5914 30.7397 27.2861 30.4697C28.0047 30.1901 28.6137 29.8168 29.222 29.21C29.8302 28.6031 30.2027 27.9934 30.4825 27.2753C30.7526 26.581 30.9379 25.787 30.99 24.6243C31.043 23.4589 31.0554 23.0875 31.0554 20.1215C31.0554 17.1556 31.043 16.7833 30.99 15.6188C30.9371 14.456 30.7526 13.6616 30.4825 12.9678C30.2027 12.2497 29.8292 11.641 29.222 11.0331C28.6147 10.4253 28.0047 10.0522 27.287 9.77338C26.5914 9.5034 25.7969 9.31817 24.6344 9.26609C23.4692 9.21314 23.0967 9.19995 20.129 9.19995C17.1612 9.19995 16.7885 9.21227 15.6226 9.26609Z" fill="#A9AFC2"/>
</svg>
