<svg width="40" height="40" viewBox="0 0 40 40" fill="none" xmlns="http://www.w3.org/2000/svg">
<path d="M29.4116 14.2511C28.8069 14.5114 28.1711 14.6926 27.5201 14.7903C27.8245 14.7382 28.2723 14.1903 28.4506 13.9685C28.7215 13.634 28.9279 13.2521 29.0594 12.8423C29.0594 12.8118 29.0898 12.7683 29.0594 12.7466C29.0441 12.7382 29.0269 12.7338 29.0094 12.7338C28.9919 12.7338 28.9747 12.7382 28.9594 12.7466C28.2524 13.1294 27.5 13.4216 26.72 13.6163C26.6928 13.6246 26.6638 13.6253 26.6363 13.6184C26.6087 13.6115 26.5835 13.5973 26.5634 13.5771C26.5027 13.5048 26.4373 13.4366 26.3678 13.3728C26.0496 13.0877 25.6886 12.8544 25.2981 12.6814C24.7708 12.4651 24.2014 12.3714 23.6326 12.4074C23.0808 12.4423 22.542 12.5903 22.0498 12.8423C21.5651 13.1079 21.1392 13.4688 20.7975 13.9033C20.4381 14.3504 20.1786 14.8694 20.0365 15.4252C19.9193 15.9539 19.9061 16.5003 19.9974 17.0341C19.9974 17.1254 19.9974 17.1385 19.9191 17.1254C16.8187 16.6688 14.2749 15.5687 12.1964 13.2075C12.1051 13.1032 12.0572 13.1032 11.9833 13.2075C11.0789 14.5816 11.518 16.7558 12.6486 17.8299C12.8008 17.9734 12.9574 18.1125 13.1226 18.2429C12.6042 18.2061 12.0985 18.0657 11.6354 17.8299C11.5485 17.7733 11.5006 17.8038 11.4963 17.9081C11.484 18.0528 11.484 18.1983 11.4963 18.343C11.587 19.0364 11.8603 19.6932 12.2881 20.2464C12.716 20.7995 13.2831 21.2291 13.9314 21.4912C14.0894 21.5589 14.2541 21.6099 14.4228 21.6434C13.9429 21.7379 13.4507 21.7525 12.9661 21.6869C12.8617 21.6651 12.8226 21.7217 12.8617 21.8217C13.5009 23.561 14.888 24.0915 15.9056 24.3872C16.0447 24.4089 16.1839 24.4089 16.3404 24.4437C16.3404 24.4437 16.3404 24.4437 16.3143 24.4698C16.0143 25.0177 14.8011 25.3873 14.2445 25.5787C13.2286 25.9436 12.1454 26.0831 11.0702 25.9874C10.9006 25.9613 10.8614 25.9657 10.818 25.9874C10.7745 26.0092 10.818 26.057 10.8658 26.1005C11.0832 26.244 11.3006 26.3701 11.5267 26.4918C12.1999 26.859 12.9115 27.1506 13.6487 27.3615C17.4666 28.4138 21.7628 27.6398 24.6284 24.7916C26.8809 22.5565 27.6723 19.4735 27.6723 16.3862C27.6723 16.2688 27.8158 16.1992 27.8984 16.1383C28.4682 15.6943 28.9706 15.1699 29.3899 14.5816C29.4625 14.4939 29.4997 14.3823 29.4942 14.2685C29.4942 14.2033 29.4942 14.2164 29.4116 14.2511Z" fill="#A9AFC2"/>
</svg>
