<svg width="1636" height="492" viewBox="0 0 1636 492" fill="none" xmlns="http://www.w3.org/2000/svg">
<path fill-rule="evenodd" clip-rule="evenodd" d="M345.278 275.93H527.598C527.952 271.69 528.128 265.86 528.128 258.44C528.128 210.74 516.292 173.64 492.618 147.14C468.945 120.287 435.202 106.86 391.388 106.86C351.108 106.86 318.248 120.994 292.808 149.26C267.368 177.174 254.648 211.977 254.648 253.67C254.648 295.717 268.075 330.52 294.928 358.08C321.782 385.287 357.645 398.89 402.518 398.89C433.965 398.89 459.935 392 480.428 378.22C500.922 364.087 514.348 350.484 520.708 337.41L462.408 292.36C458.168 299.074 450.925 305.787 440.678 312.5C430.785 318.86 418.595 322.04 404.108 322.04C388.208 322.04 374.605 317.624 363.298 308.79C352.345 299.604 346.338 288.65 345.278 275.93ZM392.978 178.41C406.405 178.41 417.005 182.474 424.778 190.6C432.905 198.374 437.322 208.09 438.028 219.75H347.928C348.988 208.797 353.405 199.257 361.178 191.13C368.952 182.65 379.552 178.41 392.978 178.41ZM742.588 226.11V392H831.098V237.77C831.098 224.344 830.568 212.507 829.508 202.26C828.448 191.66 825.974 180.177 822.088 167.81C818.555 155.09 813.431 144.667 806.718 136.54C800.358 128.06 790.995 120.994 778.628 115.34C766.615 109.687 752.305 106.86 735.698 106.86C719.798 106.86 705.664 110.394 693.298 117.46C680.931 124.527 671.745 132.83 665.738 142.37V113.75H579.348V392H667.858V226.11C667.858 214.45 671.214 204.91 677.928 197.49C684.641 190.07 694.004 186.36 706.018 186.36C716.971 186.36 725.805 189.894 732.518 196.96C739.231 203.674 742.588 213.39 742.588 226.11ZM998.251 302.96C987.297 290.594 981.821 273.634 981.821 252.08C981.821 232.647 987.121 216.57 997.721 203.85C1008.67 190.777 1023.34 184.24 1041.71 184.24C1059.73 184.24 1074.22 190.424 1085.17 202.79C1096.12 215.157 1101.6 231.587 1101.6 252.08C1101.6 272.574 1096.12 289.18 1085.17 301.9C1074.22 314.62 1059.73 320.98 1041.71 320.98C1023.69 320.98 1009.2 314.974 998.251 302.96ZM978.641 135.48V113.75H895.961V491.11H984.471V370.8C989.417 376.807 998.427 382.99 1011.5 389.35C1024.57 395.71 1040.3 398.89 1058.67 398.89C1098.6 398.89 1130.4 385.464 1154.07 358.61C1178.1 331.404 1190.11 296.07 1190.11 252.61C1190.11 209.857 1177.39 174.877 1151.95 147.67C1126.51 120.464 1093.83 106.86 1053.9 106.86C1035.88 106.86 1020.16 110.04 1006.73 116.4C993.657 122.76 984.294 129.12 978.641 135.48ZM1257.42 238.83C1237.99 255.437 1228.27 277.697 1228.27 305.61C1228.27 334.584 1238.16 357.374 1257.95 373.98C1278.09 390.587 1302.65 398.89 1331.62 398.89C1358.83 398.89 1379.85 391.47 1394.69 376.63L1399.46 392H1478.43V219.75C1478.43 184.417 1469.6 156.857 1451.93 137.07C1434.26 116.93 1402.99 106.86 1358.12 106.86C1317.13 106.86 1279.33 118.344 1244.7 141.31L1277.56 200.67C1301.59 189.01 1324.91 183.18 1347.52 183.18C1361.3 183.18 1371.72 186.007 1378.79 191.66C1386.21 197.314 1389.92 204.557 1389.92 213.39V223.46C1374.02 216.747 1356.18 213.39 1336.39 213.39C1303.53 213.39 1277.21 221.87 1257.42 238.83ZM1316.78 302.43C1316.78 293.597 1320.31 286.53 1327.38 281.23C1334.45 275.577 1343.28 272.75 1353.88 272.75C1364.83 272.75 1373.84 275.4 1380.91 280.7C1387.98 286 1391.51 293.244 1391.51 302.43C1391.51 311.617 1387.98 318.684 1380.91 323.63C1374.2 328.577 1365.36 331.05 1354.41 331.05C1343.46 331.05 1334.45 328.577 1327.38 323.63C1320.31 318.33 1316.78 311.264 1316.78 302.43ZM1630.64 392V113.75H1542.13V392H1630.64ZM1585.59 96.7904C1599.72 96.7904 1611.56 92.3737 1621.1 83.5404C1630.64 74.3537 1635.41 62.8704 1635.41 49.0904C1635.41 35.3103 1630.64 23.827 1621.1 14.6404C1611.56 5.45369 1599.72 0.860352 1585.59 0.860352C1571.45 0.860352 1559.62 5.45369 1550.08 14.6404C1540.89 23.4737 1536.3 34.957 1536.3 49.0904C1536.3 62.8704 1540.89 74.3537 1550.08 83.5404C1559.62 92.3737 1571.45 96.7904 1585.59 96.7904ZM29.6725 48.097C23.2399 45.0789 15.681 48.8922 14.2857 55.8594L12.7052 63.7516C9.67799 78.8678 10.1212 94.4739 14.0015 109.394L14.1757 110.063C15.6189 115.613 22.3941 117.708 26.7184 113.943L27.1302 113.584C39.1445 103.122 53.6115 95.8709 69.1833 92.5066C74.6816 91.3186 76.9973 84.7515 73.4602 80.3776L72.8667 79.6437C63.1933 67.6817 50.931 58.0714 37.0039 51.5369L29.6725 48.097ZM0 348.735C9.77837 361.758 24.2649 373.154 43.4594 382.922C62.654 392.689 84.7459 397.573 109.735 397.573C143.054 397.573 170.759 389.072 192.851 372.069C214.943 355.065 225.989 332.274 225.989 303.694C225.989 284.521 221.462 268.603 212.408 255.941C203.354 242.918 192.308 233.512 179.27 227.723C166.595 221.935 153.738 217.232 140.7 213.614C128.024 209.635 117.159 205.655 108.105 201.676C99.0513 197.335 94.5243 191.908 94.5243 185.396C94.5243 175.991 101.405 171.288 115.168 171.288C131.827 171.288 147.581 178.704 162.43 193.536L221.1 147.411C197.197 114.852 163.154 98.5723 118.97 98.5723C87.1 98.5723 60.8432 106.531 40.2 122.449C19.5567 138.367 9.23513 159.711 9.23513 186.482C9.23513 202.761 12.4946 217.051 19.0135 229.351C25.5324 241.29 33.5 250.515 42.9162 257.026C52.6946 263.538 63.1973 269.327 74.4243 274.391C85.6513 279.094 95.9729 282.893 105.389 285.787C115.168 288.319 123.316 291.575 129.835 295.555C136.354 299.172 139.613 303.514 139.613 308.578C139.613 319.07 131.103 324.315 114.081 324.315C90.9027 324.315 69.8973 315.995 51.0648 299.353L0 348.735ZM216.885 55.8594C215.49 48.8922 207.931 45.0789 201.498 48.097L192.013 52.5474C179.503 58.4169 168.489 67.0492 159.8 77.7939L158.48 79.4261C154.683 84.1216 157.343 91.1684 163.296 92.1832L164.778 92.4358C179.884 95.0111 193.824 102.196 204.686 113.006C208.75 117.05 215.67 115.16 217.113 109.611L217.826 106.87C221.274 93.611 221.668 79.7421 218.978 66.3086L216.885 55.8594Z" fill="white"/>
</svg>
