<svg width="40" height="40" viewBox="0 0 40 40" fill="none" xmlns="http://www.w3.org/2000/svg">
<path fill-rule="evenodd" clip-rule="evenodd" d="M28.7082 12.4764C29.6911 12.7418 30.4637 13.5164 30.7249 14.4982C31.2 16.28 31.2 20 31.2 20C31.2 20 31.2 23.72 30.7249 25.5018C30.4601 26.4873 29.6875 27.2618 28.7082 27.5236C26.9309 28 19.8 28 19.8 28C19.8 28 12.6728 28 10.8918 27.5236C9.9089 27.2582 9.13633 26.4836 8.87518 25.5018C8.40002 23.72 8.40002 20 8.40002 20C8.40002 20 8.40002 16.28 8.87518 14.4982C9.13995 13.5127 9.91253 12.7382 10.8918 12.4764C12.6728 12 19.8 12 19.8 12C19.8 12 26.9309 12 28.7082 12.4764ZM23.4453 20L17.5222 23.4291V16.5709L23.4453 20Z" fill="#A9AFC2"/>
</svg>
